<mxfile host="www.draw.io" modified="2019-12-14T17:23:04.283Z" agent="Mozilla/5.0 (Windows NT 10.0; Win64; x64) AppleWebKit/537.36 (KHTML, like Gecko) Chrome/79.0.3945.74 Safari/537.36" etag="fw3dW11Yc-IDoygRtVI6" version="12.4.2" type="github" pages="1">
  <diagram id="oOJcH6hqqhEovjQQ4BxA" name="Page-1">
    <mxGraphModel dx="1701" dy="980" grid="1" gridSize="10" guides="1" tooltips="1" connect="1" arrows="1" fold="1" page="1" pageScale="1" pageWidth="850" pageHeight="1100" math="0" shadow="0">
      <root>
        <mxCell id="0"/>
        <mxCell id="1" parent="0"/>
        <mxCell id="pPIODX3hxYl-u1vezjvX-43" value="" style="edgeStyle=orthogonalEdgeStyle;rounded=0;orthogonalLoop=1;jettySize=auto;html=1;startArrow=block;startFill=0;endArrow=none;endFill=0;" parent="1" source="pPIODX3hxYl-u1vezjvX-1" target="pPIODX3hxYl-u1vezjvX-39" edge="1">
          <mxGeometry relative="1" as="geometry">
            <Array as="points">
              <mxPoint x="340" y="120"/>
              <mxPoint x="340" y="120"/>
            </Array>
          </mxGeometry>
        </mxCell>
        <mxCell id="pPIODX3hxYl-u1vezjvX-1" value="Node" style="swimlane;fontStyle=1;align=center;verticalAlign=top;childLayout=stackLayout;horizontal=1;startSize=26;horizontalStack=0;resizeParent=1;resizeParentMax=0;resizeLast=0;collapsible=1;marginBottom=0;" parent="1" vertex="1">
          <mxGeometry x="250" y="20" width="160" height="86" as="geometry"/>
        </mxCell>
        <mxCell id="pPIODX3hxYl-u1vezjvX-2" value="(...)" style="text;strokeColor=none;fillColor=none;align=left;verticalAlign=top;spacingLeft=4;spacingRight=4;overflow=hidden;rotatable=0;points=[[0,0.5],[1,0.5]];portConstraint=eastwest;" parent="pPIODX3hxYl-u1vezjvX-1" vertex="1">
          <mxGeometry y="26" width="160" height="26" as="geometry"/>
        </mxCell>
        <mxCell id="pPIODX3hxYl-u1vezjvX-3" value="" style="line;strokeWidth=1;fillColor=none;align=left;verticalAlign=middle;spacingTop=-1;spacingLeft=3;spacingRight=3;rotatable=0;labelPosition=right;points=[];portConstraint=eastwest;" parent="pPIODX3hxYl-u1vezjvX-1" vertex="1">
          <mxGeometry y="52" width="160" height="8" as="geometry"/>
        </mxCell>
        <mxCell id="pPIODX3hxYl-u1vezjvX-4" value="(...)" style="text;strokeColor=none;fillColor=none;align=left;verticalAlign=top;spacingLeft=4;spacingRight=4;overflow=hidden;rotatable=0;points=[[0,0.5],[1,0.5]];portConstraint=eastwest;" parent="pPIODX3hxYl-u1vezjvX-1" vertex="1">
          <mxGeometry y="60" width="160" height="26" as="geometry"/>
        </mxCell>
        <mxCell id="pPIODX3hxYl-u1vezjvX-83" style="edgeStyle=orthogonalEdgeStyle;rounded=0;orthogonalLoop=1;jettySize=auto;html=1;entryX=0;entryY=0.5;entryDx=0;entryDy=0;startArrow=block;startFill=0;endArrow=none;endFill=0;" parent="1" source="pPIODX3hxYl-u1vezjvX-39" target="pPIODX3hxYl-u1vezjvX-66" edge="1">
          <mxGeometry relative="1" as="geometry">
            <Array as="points">
              <mxPoint x="340" y="240"/>
              <mxPoint x="320" y="240"/>
              <mxPoint x="320" y="270"/>
              <mxPoint x="250" y="270"/>
            </Array>
          </mxGeometry>
        </mxCell>
        <mxCell id="pPIODX3hxYl-u1vezjvX-84" style="edgeStyle=orthogonalEdgeStyle;rounded=0;orthogonalLoop=1;jettySize=auto;html=1;startArrow=block;startFill=0;endArrow=none;endFill=0;" parent="1" source="pPIODX3hxYl-u1vezjvX-39" target="pPIODX3hxYl-u1vezjvX-69" edge="1">
          <mxGeometry relative="1" as="geometry">
            <mxPoint x="210" y="410" as="targetPoint"/>
            <Array as="points">
              <mxPoint x="340" y="240"/>
              <mxPoint x="110" y="240"/>
            </Array>
          </mxGeometry>
        </mxCell>
        <mxCell id="pPIODX3hxYl-u1vezjvX-39" value="Attributeable" style="swimlane;fontStyle=3;align=center;verticalAlign=top;childLayout=stackLayout;horizontal=1;startSize=25;horizontalStack=0;resizeParent=1;resizeParentMax=0;resizeLast=0;collapsible=1;marginBottom=0;" parent="1" vertex="1">
          <mxGeometry x="250" y="140" width="180" height="85" as="geometry">
            <mxRectangle x="290" y="40" width="60" height="26" as="alternateBounds"/>
          </mxGeometry>
        </mxCell>
        <mxCell id="pPIODX3hxYl-u1vezjvX-62" value="- attributes: Attribute Collection" style="text;strokeColor=none;fillColor=none;align=left;verticalAlign=top;spacingLeft=4;spacingRight=4;overflow=hidden;rotatable=0;points=[[0,0.5],[1,0.5]];portConstraint=eastwest;" parent="pPIODX3hxYl-u1vezjvX-39" vertex="1">
          <mxGeometry y="25" width="180" height="26" as="geometry"/>
        </mxCell>
        <mxCell id="pPIODX3hxYl-u1vezjvX-41" value="" style="line;strokeWidth=1;fillColor=none;align=left;verticalAlign=middle;spacingTop=-1;spacingLeft=3;spacingRight=3;rotatable=0;labelPosition=right;points=[];portConstraint=eastwest;" parent="pPIODX3hxYl-u1vezjvX-39" vertex="1">
          <mxGeometry y="51" width="180" height="8" as="geometry"/>
        </mxCell>
        <mxCell id="pPIODX3hxYl-u1vezjvX-42" value="(...)" style="text;strokeColor=none;fillColor=none;align=left;verticalAlign=top;spacingLeft=4;spacingRight=4;overflow=hidden;rotatable=0;points=[[0,0.5],[1,0.5]];portConstraint=eastwest;" parent="pPIODX3hxYl-u1vezjvX-39" vertex="1">
          <mxGeometry y="59" width="180" height="26" as="geometry"/>
        </mxCell>
        <mxCell id="pPIODX3hxYl-u1vezjvX-26" value="Attribute Collection" style="swimlane;fontStyle=1;align=center;verticalAlign=top;childLayout=stackLayout;horizontal=1;startSize=26;horizontalStack=0;resizeParent=1;resizeParentMax=0;resizeLast=0;collapsible=1;marginBottom=0;" parent="1" vertex="1">
          <mxGeometry x="720" y="173" width="160" height="86" as="geometry"/>
        </mxCell>
        <mxCell id="pPIODX3hxYl-u1vezjvX-27" value="- store: Attribute (0...*)" style="text;strokeColor=none;fillColor=none;align=left;verticalAlign=top;spacingLeft=4;spacingRight=4;overflow=hidden;rotatable=0;points=[[0,0.5],[1,0.5]];portConstraint=eastwest;" parent="pPIODX3hxYl-u1vezjvX-26" vertex="1">
          <mxGeometry y="26" width="160" height="26" as="geometry"/>
        </mxCell>
        <mxCell id="pPIODX3hxYl-u1vezjvX-28" value="" style="line;strokeWidth=1;fillColor=none;align=left;verticalAlign=middle;spacingTop=-1;spacingLeft=3;spacingRight=3;rotatable=0;labelPosition=right;points=[];portConstraint=eastwest;" parent="pPIODX3hxYl-u1vezjvX-26" vertex="1">
          <mxGeometry y="52" width="160" height="8" as="geometry"/>
        </mxCell>
        <mxCell id="pPIODX3hxYl-u1vezjvX-29" value="// Empty" style="text;strokeColor=none;fillColor=none;align=left;verticalAlign=top;spacingLeft=4;spacingRight=4;overflow=hidden;rotatable=0;points=[[0,0.5],[1,0.5]];portConstraint=eastwest;" parent="pPIODX3hxYl-u1vezjvX-26" vertex="1">
          <mxGeometry y="60" width="160" height="26" as="geometry"/>
        </mxCell>
        <mxCell id="pPIODX3hxYl-u1vezjvX-85" value="ActionÂ Collection" style="swimlane;fontStyle=1;align=center;verticalAlign=top;childLayout=stackLayout;horizontal=1;startSize=26;horizontalStack=0;resizeParent=1;resizeParentMax=0;resizeLast=0;collapsible=1;marginBottom=0;" parent="1" vertex="1">
          <mxGeometry x="920" y="173" width="160" height="86" as="geometry"/>
        </mxCell>
        <mxCell id="pPIODX3hxYl-u1vezjvX-86" value="- store: Action (0...*)" style="text;strokeColor=none;fillColor=none;align=left;verticalAlign=top;spacingLeft=4;spacingRight=4;overflow=hidden;rotatable=0;points=[[0,0.5],[1,0.5]];portConstraint=eastwest;" parent="pPIODX3hxYl-u1vezjvX-85" vertex="1">
          <mxGeometry y="26" width="160" height="26" as="geometry"/>
        </mxCell>
        <mxCell id="pPIODX3hxYl-u1vezjvX-87" value="" style="line;strokeWidth=1;fillColor=none;align=left;verticalAlign=middle;spacingTop=-1;spacingLeft=3;spacingRight=3;rotatable=0;labelPosition=right;points=[];portConstraint=eastwest;" parent="pPIODX3hxYl-u1vezjvX-85" vertex="1">
          <mxGeometry y="52" width="160" height="8" as="geometry"/>
        </mxCell>
        <mxCell id="pPIODX3hxYl-u1vezjvX-88" value="// Empty" style="text;strokeColor=none;fillColor=none;align=left;verticalAlign=top;spacingLeft=4;spacingRight=4;overflow=hidden;rotatable=0;points=[[0,0.5],[1,0.5]];portConstraint=eastwest;" parent="pPIODX3hxYl-u1vezjvX-85" vertex="1">
          <mxGeometry y="60" width="160" height="26" as="geometry"/>
        </mxCell>
        <mxCell id="pPIODX3hxYl-u1vezjvX-55" value="" style="edgeStyle=orthogonalEdgeStyle;rounded=0;orthogonalLoop=1;jettySize=auto;html=1;startArrow=block;startFill=0;endArrow=none;endFill=0;" parent="1" source="pPIODX3hxYl-u1vezjvX-31" target="pPIODX3hxYl-u1vezjvX-26" edge="1">
          <mxGeometry relative="1" as="geometry">
            <Array as="points">
              <mxPoint x="800" y="140"/>
              <mxPoint x="800" y="140"/>
            </Array>
          </mxGeometry>
        </mxCell>
        <mxCell id="pPIODX3hxYl-u1vezjvX-89" style="edgeStyle=orthogonalEdgeStyle;rounded=0;orthogonalLoop=1;jettySize=auto;html=1;entryX=0.5;entryY=0;entryDx=0;entryDy=0;startArrow=block;startFill=0;endArrow=none;endFill=0;" parent="1" source="pPIODX3hxYl-u1vezjvX-31" target="pPIODX3hxYl-u1vezjvX-85" edge="1">
          <mxGeometry relative="1" as="geometry">
            <Array as="points">
              <mxPoint x="800" y="130"/>
              <mxPoint x="1000" y="130"/>
            </Array>
          </mxGeometry>
        </mxCell>
        <mxCell id="pPIODX3hxYl-u1vezjvX-31" value="Dictionary" style="swimlane;fontStyle=1;align=center;verticalAlign=top;childLayout=stackLayout;horizontal=1;startSize=26;horizontalStack=0;resizeParent=1;resizeParentMax=0;resizeLast=0;collapsible=1;marginBottom=0;" parent="1" vertex="1">
          <mxGeometry x="720" y="20" width="160" height="86" as="geometry"/>
        </mxCell>
        <mxCell id="pPIODX3hxYl-u1vezjvX-32" value="(...)" style="text;strokeColor=none;fillColor=none;align=left;verticalAlign=top;spacingLeft=4;spacingRight=4;overflow=hidden;rotatable=0;points=[[0,0.5],[1,0.5]];portConstraint=eastwest;" parent="pPIODX3hxYl-u1vezjvX-31" vertex="1">
          <mxGeometry y="26" width="160" height="26" as="geometry"/>
        </mxCell>
        <mxCell id="pPIODX3hxYl-u1vezjvX-33" value="" style="line;strokeWidth=1;fillColor=none;align=left;verticalAlign=middle;spacingTop=-1;spacingLeft=3;spacingRight=3;rotatable=0;labelPosition=right;points=[];portConstraint=eastwest;" parent="pPIODX3hxYl-u1vezjvX-31" vertex="1">
          <mxGeometry y="52" width="160" height="8" as="geometry"/>
        </mxCell>
        <mxCell id="pPIODX3hxYl-u1vezjvX-34" value="(...)" style="text;strokeColor=none;fillColor=none;align=left;verticalAlign=top;spacingLeft=4;spacingRight=4;overflow=hidden;rotatable=0;points=[[0,0.5],[1,0.5]];portConstraint=eastwest;" parent="pPIODX3hxYl-u1vezjvX-31" vertex="1">
          <mxGeometry y="60" width="160" height="26" as="geometry"/>
        </mxCell>
        <mxCell id="pPIODX3hxYl-u1vezjvX-57" value="" style="edgeStyle=orthogonalEdgeStyle;rounded=0;orthogonalLoop=1;jettySize=auto;html=1;startArrow=block;startFill=0;endArrow=none;endFill=0;entryX=0.5;entryY=0;entryDx=0;entryDy=0;" parent="1" source="pPIODX3hxYl-u1vezjvX-6" target="pPIODX3hxYl-u1vezjvX-21" edge="1">
          <mxGeometry relative="1" as="geometry"/>
        </mxCell>
        <mxCell id="pPIODX3hxYl-u1vezjvX-6" value="Variant" style="swimlane;fontStyle=1;align=center;verticalAlign=top;childLayout=stackLayout;horizontal=1;startSize=26;horizontalStack=0;resizeParent=1;resizeParentMax=0;resizeLast=0;collapsible=1;marginBottom=0;" parent="1" vertex="1">
          <mxGeometry x="500" y="20" width="160" height="86" as="geometry"/>
        </mxCell>
        <mxCell id="pPIODX3hxYl-u1vezjvX-7" value="(...)" style="text;strokeColor=none;fillColor=none;align=left;verticalAlign=top;spacingLeft=4;spacingRight=4;overflow=hidden;rotatable=0;points=[[0,0.5],[1,0.5]];portConstraint=eastwest;" parent="pPIODX3hxYl-u1vezjvX-6" vertex="1">
          <mxGeometry y="26" width="160" height="26" as="geometry"/>
        </mxCell>
        <mxCell id="pPIODX3hxYl-u1vezjvX-8" value="" style="line;strokeWidth=1;fillColor=none;align=left;verticalAlign=middle;spacingTop=-1;spacingLeft=3;spacingRight=3;rotatable=0;labelPosition=right;points=[];portConstraint=eastwest;" parent="pPIODX3hxYl-u1vezjvX-6" vertex="1">
          <mxGeometry y="52" width="160" height="8" as="geometry"/>
        </mxCell>
        <mxCell id="pPIODX3hxYl-u1vezjvX-9" value="(...)" style="text;strokeColor=none;fillColor=none;align=left;verticalAlign=top;spacingLeft=4;spacingRight=4;overflow=hidden;rotatable=0;points=[[0,0.5],[1,0.5]];portConstraint=eastwest;" parent="pPIODX3hxYl-u1vezjvX-6" vertex="1">
          <mxGeometry y="60" width="160" height="26" as="geometry"/>
        </mxCell>
        <mxCell id="pPIODX3hxYl-u1vezjvX-21" value="Attribute" style="swimlane;fontStyle=1;align=center;verticalAlign=top;childLayout=stackLayout;horizontal=1;startSize=26;horizontalStack=0;resizeParent=1;resizeParentMax=0;resizeLast=0;collapsible=1;marginBottom=0;" parent="1" vertex="1">
          <mxGeometry x="500" y="139" width="160" height="86" as="geometry"/>
        </mxCell>
        <mxCell id="pPIODX3hxYl-u1vezjvX-22" value="//Empty" style="text;strokeColor=none;fillColor=none;align=left;verticalAlign=top;spacingLeft=4;spacingRight=4;overflow=hidden;rotatable=0;points=[[0,0.5],[1,0.5]];portConstraint=eastwest;" parent="pPIODX3hxYl-u1vezjvX-21" vertex="1">
          <mxGeometry y="26" width="160" height="26" as="geometry"/>
        </mxCell>
        <mxCell id="pPIODX3hxYl-u1vezjvX-23" value="" style="line;strokeWidth=1;fillColor=none;align=left;verticalAlign=middle;spacingTop=-1;spacingLeft=3;spacingRight=3;rotatable=0;labelPosition=right;points=[];portConstraint=eastwest;" parent="pPIODX3hxYl-u1vezjvX-21" vertex="1">
          <mxGeometry y="52" width="160" height="8" as="geometry"/>
        </mxCell>
        <mxCell id="pPIODX3hxYl-u1vezjvX-24" value="//Empty" style="text;strokeColor=none;fillColor=none;align=left;verticalAlign=top;spacingLeft=4;spacingRight=4;overflow=hidden;rotatable=0;points=[[0,0.5],[1,0.5]];portConstraint=eastwest;" parent="pPIODX3hxYl-u1vezjvX-21" vertex="1">
          <mxGeometry y="60" width="160" height="26" as="geometry"/>
        </mxCell>
        <mxCell id="pPIODX3hxYl-u1vezjvX-90" style="edgeStyle=orthogonalEdgeStyle;rounded=0;orthogonalLoop=1;jettySize=auto;html=1;entryX=0.5;entryY=0;entryDx=0;entryDy=0;startArrow=block;startFill=0;endArrow=none;endFill=0;" parent="1" source="pPIODX3hxYl-u1vezjvX-65" target="pPIODX3hxYl-u1vezjvX-77" edge="1">
          <mxGeometry relative="1" as="geometry"/>
        </mxCell>
        <mxCell id="pPIODX3hxYl-u1vezjvX-95" style="edgeStyle=orthogonalEdgeStyle;rounded=0;orthogonalLoop=1;jettySize=auto;html=1;entryX=0.465;entryY=0.004;entryDx=0;entryDy=0;entryPerimeter=0;startArrow=block;startFill=0;endArrow=none;endFill=0;" parent="1" source="pPIODX3hxYl-u1vezjvX-65" target="pPIODX3hxYl-u1vezjvX-91" edge="1">
          <mxGeometry relative="1" as="geometry">
            <Array as="points">
              <mxPoint x="330" y="360"/>
              <mxPoint x="524" y="360"/>
            </Array>
          </mxGeometry>
        </mxCell>
        <mxCell id="pPIODX3hxYl-u1vezjvX-65" value="Actor" style="swimlane;fontStyle=3;align=center;verticalAlign=top;childLayout=stackLayout;horizontal=1;startSize=26;horizontalStack=0;resizeParent=1;resizeParentMax=0;resizeLast=0;collapsible=1;marginBottom=0;" parent="1" vertex="1">
          <mxGeometry x="250" y="259" width="160" height="86" as="geometry"/>
        </mxCell>
        <mxCell id="pPIODX3hxYl-u1vezjvX-66" value="+ field: type" style="text;strokeColor=none;fillColor=none;align=left;verticalAlign=top;spacingLeft=4;spacingRight=4;overflow=hidden;rotatable=0;points=[[0,0.5],[1,0.5]];portConstraint=eastwest;" parent="pPIODX3hxYl-u1vezjvX-65" vertex="1">
          <mxGeometry y="26" width="160" height="26" as="geometry"/>
        </mxCell>
        <mxCell id="pPIODX3hxYl-u1vezjvX-67" value="" style="line;strokeWidth=1;fillColor=none;align=left;verticalAlign=middle;spacingTop=-1;spacingLeft=3;spacingRight=3;rotatable=0;labelPosition=right;points=[];portConstraint=eastwest;" parent="pPIODX3hxYl-u1vezjvX-65" vertex="1">
          <mxGeometry y="52" width="160" height="8" as="geometry"/>
        </mxCell>
        <mxCell id="pPIODX3hxYl-u1vezjvX-68" value="+ do(string): void" style="text;strokeColor=none;fillColor=none;align=left;verticalAlign=top;spacingLeft=4;spacingRight=4;overflow=hidden;rotatable=0;points=[[0,0.5],[1,0.5]];portConstraint=eastwest;" parent="pPIODX3hxYl-u1vezjvX-65" vertex="1">
          <mxGeometry y="60" width="160" height="26" as="geometry"/>
        </mxCell>
        <mxCell id="pPIODX3hxYl-u1vezjvX-69" value="Action" style="swimlane;fontStyle=1;align=center;verticalAlign=top;childLayout=stackLayout;horizontal=1;startSize=26;horizontalStack=0;resizeParent=1;resizeParentMax=0;resizeLast=0;collapsible=1;marginBottom=0;" parent="1" vertex="1">
          <mxGeometry x="30" y="259" width="160" height="86" as="geometry"/>
        </mxCell>
        <mxCell id="pPIODX3hxYl-u1vezjvX-70" value="+ target: Actor(0...*)" style="text;strokeColor=none;fillColor=none;align=left;verticalAlign=top;spacingLeft=4;spacingRight=4;overflow=hidden;rotatable=0;points=[[0,0.5],[1,0.5]];portConstraint=eastwest;" parent="pPIODX3hxYl-u1vezjvX-69" vertex="1">
          <mxGeometry y="26" width="160" height="26" as="geometry"/>
        </mxCell>
        <mxCell id="pPIODX3hxYl-u1vezjvX-71" value="" style="line;strokeWidth=1;fillColor=none;align=left;verticalAlign=middle;spacingTop=-1;spacingLeft=3;spacingRight=3;rotatable=0;labelPosition=right;points=[];portConstraint=eastwest;" parent="pPIODX3hxYl-u1vezjvX-69" vertex="1">
          <mxGeometry y="52" width="160" height="8" as="geometry"/>
        </mxCell>
        <mxCell id="pPIODX3hxYl-u1vezjvX-72" value="+ method(type): type" style="text;strokeColor=none;fillColor=none;align=left;verticalAlign=top;spacingLeft=4;spacingRight=4;overflow=hidden;rotatable=0;points=[[0,0.5],[1,0.5]];portConstraint=eastwest;" parent="pPIODX3hxYl-u1vezjvX-69" vertex="1">
          <mxGeometry y="60" width="160" height="26" as="geometry"/>
        </mxCell>
        <mxCell id="pPIODX3hxYl-u1vezjvX-77" value="Battler" style="swimlane;fontStyle=1;align=center;verticalAlign=top;childLayout=stackLayout;horizontal=1;startSize=26;horizontalStack=0;resizeParent=1;resizeParentMax=0;resizeLast=0;collapsible=1;marginBottom=0;" parent="1" vertex="1">
          <mxGeometry x="250" y="390" width="160" height="86" as="geometry"/>
        </mxCell>
        <mxCell id="pPIODX3hxYl-u1vezjvX-78" value="+ actions: Action (0...*)" style="text;strokeColor=none;fillColor=none;align=left;verticalAlign=top;spacingLeft=4;spacingRight=4;overflow=hidden;rotatable=0;points=[[0,0.5],[1,0.5]];portConstraint=eastwest;" parent="pPIODX3hxYl-u1vezjvX-77" vertex="1">
          <mxGeometry y="26" width="160" height="26" as="geometry"/>
        </mxCell>
        <mxCell id="pPIODX3hxYl-u1vezjvX-79" value="" style="line;strokeWidth=1;fillColor=none;align=left;verticalAlign=middle;spacingTop=-1;spacingLeft=3;spacingRight=3;rotatable=0;labelPosition=right;points=[];portConstraint=eastwest;" parent="pPIODX3hxYl-u1vezjvX-77" vertex="1">
          <mxGeometry y="52" width="160" height="8" as="geometry"/>
        </mxCell>
        <mxCell id="pPIODX3hxYl-u1vezjvX-80" value="+ method(type): type" style="text;strokeColor=none;fillColor=none;align=left;verticalAlign=top;spacingLeft=4;spacingRight=4;overflow=hidden;rotatable=0;points=[[0,0.5],[1,0.5]];portConstraint=eastwest;" parent="pPIODX3hxYl-u1vezjvX-77" vertex="1">
          <mxGeometry y="60" width="160" height="26" as="geometry"/>
        </mxCell>
        <mxCell id="pPIODX3hxYl-u1vezjvX-91" value="Location" style="swimlane;fontStyle=1;align=center;verticalAlign=top;childLayout=stackLayout;horizontal=1;startSize=26;horizontalStack=0;resizeParent=1;resizeParentMax=0;resizeLast=0;collapsible=1;marginBottom=0;" parent="1" vertex="1">
          <mxGeometry x="450" y="388" width="160" height="86" as="geometry"/>
        </mxCell>
        <mxCell id="pPIODX3hxYl-u1vezjvX-92" value="+ actors: Actor(0..*)" style="text;strokeColor=none;fillColor=none;align=left;verticalAlign=top;spacingLeft=4;spacingRight=4;overflow=hidden;rotatable=0;points=[[0,0.5],[1,0.5]];portConstraint=eastwest;" parent="pPIODX3hxYl-u1vezjvX-91" vertex="1">
          <mxGeometry y="26" width="160" height="26" as="geometry"/>
        </mxCell>
        <mxCell id="pPIODX3hxYl-u1vezjvX-93" value="" style="line;strokeWidth=1;fillColor=none;align=left;verticalAlign=middle;spacingTop=-1;spacingLeft=3;spacingRight=3;rotatable=0;labelPosition=right;points=[];portConstraint=eastwest;" parent="pPIODX3hxYl-u1vezjvX-91" vertex="1">
          <mxGeometry y="52" width="160" height="8" as="geometry"/>
        </mxCell>
        <mxCell id="pPIODX3hxYl-u1vezjvX-94" value="+ method(type): type" style="text;strokeColor=none;fillColor=none;align=left;verticalAlign=top;spacingLeft=4;spacingRight=4;overflow=hidden;rotatable=0;points=[[0,0.5],[1,0.5]];portConstraint=eastwest;" parent="pPIODX3hxYl-u1vezjvX-91" vertex="1">
          <mxGeometry y="60" width="160" height="26" as="geometry"/>
        </mxCell>
      </root>
    </mxGraphModel>
  </diagram>
</mxfile>
